<?xml version="1.0" encoding="utf-8"?>
<!-- Generator: Adobe Illustrator 22.0.1, SVG Export Plug-In . SVG Version: 6.00 Build 0)  -->
<svg version="1.1" id="Layer_1" xmlns="http://www.w3.org/2000/svg" xmlns:xlink="http://www.w3.org/1999/xlink" x="0px" y="0px"
	 viewBox="0 0 405.8 218.6" style="enable-background:new 0 0 405.8 218.6;" xml:space="preserve">
<g>
	<path d="M80.1,202.1H19.3V10.4h25.6v168.4h35.2V202.1z"/>
	<path d="M124.4,202.1c-20.6,0-31-10.9-31-32.6V43.3c0-21.9,10.2-32.8,30.7-32.8h24.6c20.5,0,30.7,10.9,30.7,32.8v126.3
		c0,21.7-10.3,32.6-31,32.6H124.4z M130.6,178.9h13.1c6.8,0,10.1-3.7,10.1-11.2V44.9c0-7.5-3.8-11.2-11.5-11.2h-12
		c-7.5,0-11.2,3.7-11.2,11.2v122.8C119.1,175.1,122.9,178.9,130.6,178.9z"/>
	<path d="M241.6,131.9v-23.2h39v93.4h-50.2c-19.8,0-29.6-10.8-29.6-32.3V43.3c0-21.9,9.9-32.8,29.6-32.8H248
		c21.7,0,32.6,11.1,32.6,33.4v20.8H255V47.5c0-9.3-3.6-13.9-10.9-13.9h-6.4c-7.5,0-11.2,4.6-11.2,13.9V165c0,9.3,3.7,13.9,11.2,13.9
		H255v-47H241.6z"/>
	<path d="M331,202.1c-20.6,0-31-10.9-31-32.6V43.3c0-21.9,10.2-32.8,30.7-32.8h24.6c20.5,0,30.7,10.9,30.7,32.8v126.3
		c0,21.7-10.3,32.6-31,32.6H331z M337.2,178.9h13.1c6.8,0,10.1-3.7,10.1-11.2V44.9c0-7.5-3.8-11.2-11.5-11.2h-12
		c-7.5,0-11.2,3.7-11.2,11.2v122.8C325.7,175.1,329.5,178.9,337.2,178.9z"/>
</g>
</svg>
